<svg
  width="105"
  height="36"
  viewBox="0 0 105 36"
  fill="none"
  xmlns="http://www.w3.org/2000/svg"
>
  <g clip-path="url(#clip0_270_15334)">
    <path
      d="M19.4617 17.7222V17.7975V18.0141C19.4617 20.6791 18.5151 22.9579 16.6125 24.8601C14.7099 26.7622 12.4097 27.7039 9.7214 27.7039C7.04259 27.7039 4.75188 26.7528 2.84926 24.8601C0.93718 22.9485 -0.00939547 20.6508 7.02891e-05 17.967C0.00953604 15.3963 1.03184 12.9668 2.85873 11.1494C4.76135 9.25661 7.04259 8.31494 9.7214 8.31494C11.2454 8.31494 12.6558 8.63511 13.9526 9.27544V2.74026C13.9526 1.22417 15.1831 0 16.7071 0C18.2311 0 19.4617 1.22417 19.4617 2.74026V17.7222ZM9.7214 22.2234C10.8952 22.2234 11.8985 21.8091 12.722 20.9898C13.5456 20.1611 13.9526 19.1724 13.9526 18.0141C13.9526 16.8559 13.5456 15.8671 12.722 15.0385C11.8985 14.2098 10.9046 13.8049 9.7214 13.8049C8.55711 13.8049 7.56321 14.2192 6.73022 15.0385C5.9067 15.8671 5.49021 16.8559 5.49021 18.0141C5.49021 19.1724 5.9067 20.1611 6.73022 20.9898C7.56321 21.8091 8.55711 22.2234 9.7214 22.2234Z"
      fill="#002BE8"
    />
    <path
      d="M34.1146 10.548C34.4081 10.256 34.711 9.98295 35.0233 9.73812C33.5277 8.8247 31.8523 8.36328 30.0065 8.36328C27.3277 8.36328 25.037 9.31437 23.1343 11.1977C21.2317 13.0905 20.2852 15.3693 20.2852 18.0342V18.2508V18.3261V24.9932C20.2852 26.4998 21.5157 27.724 23.0302 27.724C24.5447 27.724 25.7753 26.4998 25.7753 24.9932V18.2037H25.7942V18.1284C25.7848 18.1001 25.7753 18.0719 25.7753 18.0342C25.7753 16.876 26.1918 15.8872 27.0153 15.0585C27.8483 14.2393 28.8422 13.825 30.0065 13.825C30.6123 13.825 31.1802 13.938 31.7009 14.1734C32.2215 12.8456 33.0166 11.6403 34.1146 10.548Z"
      fill="#002BE8"
    />
    <path
      d="M41.6114 8.30469C44.2902 8.30469 46.5809 9.25577 48.493 11.1485C50.405 13.0507 51.3516 15.3295 51.3516 17.9945C51.3516 20.6688 50.3956 22.9571 48.493 24.8592C46.5809 26.7614 44.2902 27.7031 41.6114 27.7031C38.9231 27.7031 36.6229 26.752 34.7203 24.8592C32.8177 22.9571 31.8711 20.6782 31.8711 17.9945C31.8711 15.3295 32.8177 13.0507 34.7203 11.1485C36.6229 9.24636 38.9231 8.30469 41.6114 8.30469ZM41.6114 22.2226C42.7756 22.2226 43.7696 21.8082 44.6025 20.989C45.4355 20.1697 45.8426 19.1715 45.8426 17.9945C45.8426 16.8362 45.4261 15.8475 44.6025 15.0188C43.7696 14.1995 42.7756 13.7852 41.6114 13.7852C40.4471 13.7852 39.4532 14.1995 38.6202 15.0188C37.7872 15.8475 37.3802 16.8362 37.3802 17.9945C37.3802 19.1621 37.7967 20.1603 38.6202 20.989C39.4532 21.8082 40.4471 22.2226 41.6114 22.2226Z"
      fill="#002BE8"
    />
    <path
      d="M61.9239 8.32422C64.6027 8.32422 66.8934 9.26589 68.8055 11.1586C70.7175 13.0514 71.6641 15.3302 71.6641 18.014C71.6641 20.6789 70.7081 22.9578 68.8055 24.8505C66.8934 26.7433 64.6027 27.6849 61.9239 27.6849C60.4093 27.6849 58.9989 27.3742 57.6927 26.7433V33.269C57.6927 34.7851 56.4621 36.0093 54.9381 36.0093C53.4141 36.0093 52.1836 34.7851 52.1836 33.269V18.2965V18.2212V18.1176C52.1836 15.4715 53.2248 12.9196 55.118 11.0739C57.0111 9.23764 59.2734 8.32422 61.9239 8.32422ZM61.9239 22.2233C63.0881 22.2233 64.0821 21.8089 64.915 20.9897C65.748 20.1704 66.155 19.1722 66.155 18.014C66.155 16.8557 65.7386 15.867 64.915 15.0383C64.0915 14.2096 63.0881 13.8047 61.9239 13.8047C60.7596 13.8047 59.7657 14.2191 58.9327 15.0383C58.0997 15.867 57.6927 16.8557 57.6927 18.014C57.6927 19.1722 58.1092 20.161 58.9327 20.9897C59.7657 21.8089 60.7596 22.2233 61.9239 22.2233Z"
      fill="#002BE8"
    />
    <path
      d="M82.2285 8.30469C84.9074 8.30469 87.1981 9.24636 89.1101 11.1391C91.0222 13.0319 91.9688 15.3107 91.9688 17.9945C91.9688 20.6594 91.0128 22.9382 89.1101 24.831C87.1981 26.7237 84.9074 27.6654 82.2285 27.6654C80.714 27.6654 79.3036 27.3546 77.9974 26.7237V33.2495C77.9974 34.7656 76.7668 35.9898 75.2428 35.9898C73.7188 35.9898 72.4883 34.7656 72.4883 33.2495V18.277V18.2016V18.098C72.4883 15.452 73.5295 12.9 75.4227 11.0544C77.3063 9.21811 79.5781 8.30469 82.2285 8.30469ZM82.2285 22.2037C83.3928 22.2037 84.3867 21.7894 85.2197 20.9701C86.0527 20.1509 86.4597 19.1527 86.4597 17.9945C86.4597 16.8362 86.0432 15.8475 85.2197 15.0188C84.3962 14.1901 83.3928 13.7852 82.2285 13.7852C81.0643 13.7852 80.0703 14.1995 79.2374 15.0188C78.4044 15.8475 77.9974 16.8362 77.9974 17.9945C77.9974 19.1527 78.4138 20.1415 79.2374 20.9701C80.0703 21.7894 81.0643 22.2037 82.2285 22.2037Z"
      fill="#002BE8"
    />
    <path
      d="M98.2942 17.2871V24.9617C98.2942 26.4778 97.0637 27.702 95.5397 27.702C94.0157 27.702 92.7852 26.4778 92.7852 24.9617V17.2871C92.7852 15.771 94.0157 14.5469 95.5397 14.5469C97.0637 14.5469 98.2942 15.771 98.2942 17.2871Z"
      fill="#002BE8"
    />
    <path
      d="M104.626 17.3457V24.9638C104.626 26.4799 103.396 27.7041 101.872 27.7041C100.348 27.7041 99.1172 26.4799 99.1172 24.9638V17.3457C99.1172 15.8296 100.348 14.6055 101.872 14.6055C103.396 14.6055 104.626 15.8296 104.626 17.3457Z"
      fill="#002BE8"
    />
    <path
      d="M101.841 13.825C101.084 13.825 100.44 13.5613 99.9101 13.0245C99.3705 12.4878 99.1055 11.8475 99.1055 11.1035C99.1055 10.3408 99.3705 9.70045 99.9101 9.1637C100.45 8.62695 101.093 8.36328 101.841 8.36328C102.608 8.36328 103.251 8.62695 103.791 9.1637C104.331 9.70045 104.596 10.3408 104.596 11.1035C104.596 11.8569 104.331 12.4972 103.791 13.0245C103.261 13.5613 102.608 13.825 101.841 13.825Z"
      fill="#002BE8"
    />
    <path
      d="M103.377 12.7319C103.007 13.0615 103.14 13.6735 103.613 13.8242C104.087 13.9749 104.55 13.5605 104.446 13.0709C104.342 12.5906 103.746 12.4023 103.377 12.7319Z"
      fill="#002BE8"
    />
    <path
      d="M101.85 10.8363C101.595 10.8363 101.358 10.7515 101.169 10.6009C101.008 10.469 100.762 10.5915 100.762 10.7892V10.7986C100.771 11.3919 101.292 11.8815 101.888 11.8627C102.475 11.8439 102.939 11.3636 102.939 10.7798C102.939 10.7798 102.939 10.7798 102.939 10.7704C102.939 10.5726 102.693 10.4596 102.541 10.582C102.352 10.7421 102.115 10.8363 101.85 10.8363Z"
      fill="white"
    />
    <path
      d="M93.5858 13.0245C93.0463 12.4878 92.7812 11.8475 92.7812 11.1035C92.7812 10.3408 93.0463 9.70045 93.5858 9.1637C94.1254 8.62695 94.7691 8.36328 95.5358 8.36328C96.293 8.36328 96.9367 8.62695 97.4668 9.1637C98.0064 9.70045 98.2714 10.3408 98.2714 11.1035C98.2714 11.8475 98.0064 12.4972 97.4668 13.0245C96.9273 13.5613 96.2836 13.825 95.5358 13.825C94.7691 13.825 94.1254 13.5613 93.5858 13.0245Z"
      fill="#002BE8"
    />
    <path
      d="M94.0063 12.7319C94.3754 13.0615 94.2429 13.6735 93.7696 13.8242C93.2964 13.9749 92.8325 13.5605 92.9367 13.0709C93.0502 12.5906 93.6371 12.4023 94.0063 12.7319Z"
      fill="#002BE8"
    />
    <path
      d="M95.5261 10.8363C95.7816 10.8363 96.0183 10.7515 96.2076 10.6009C96.3685 10.469 96.6146 10.5915 96.6146 10.7892V10.7986C96.6052 11.3919 96.0845 11.8815 95.4882 11.8627C94.9013 11.8439 94.4375 11.3636 94.4375 10.7798C94.4375 10.7798 94.4375 10.7798 94.4375 10.7704C94.4375 10.5726 94.6836 10.4596 94.8351 10.582C95.0244 10.7421 95.261 10.8363 95.5261 10.8363Z"
      fill="white"
    />
  </g>
  <defs>
    <clipPath id="clip0_270_15334">
      <rect width="104.625" height="36" fill="white" />
    </clipPath>
  </defs>
</svg>
